<svg width="139" height="23" viewBox="0 0 139 23" fill="none" xmlns="http://www.w3.org/2000/svg">
<path d="M11.5 0L14.0819 7.9463H22.4371L15.6776 12.8574L18.2595 20.8037L11.5 15.8926L4.74047 20.8037L7.32238 12.8574L0.56285 7.9463H8.91809L11.5 0Z" fill="#FFC220"/>
<path d="M40.5 0L43.0819 7.9463H51.4371L44.6776 12.8574L47.2595 20.8037L40.5 15.8926L33.7405 20.8037L36.3224 12.8574L29.5628 7.9463H37.9181L40.5 0Z" fill="#FFC220"/>
<path d="M69.5 0L72.0819 7.9463H80.4371L73.6776 12.8574L76.2595 20.8037L69.5 15.8926L62.7405 20.8037L65.3224 12.8574L58.5628 7.9463H66.9181L69.5 0Z" fill="#FFC220"/>
<path d="M98.5 0L101.082 7.9463H109.437L102.678 12.8574L105.26 20.8037L98.5 15.8926L91.7405 20.8037L94.3224 12.8574L87.5628 7.9463H95.9181L98.5 0Z" fill="#FFC220"/>
<path d="M127.5 0L130.082 7.9463H138.437L131.678 12.8574L134.26 20.8037L127.5 15.8926L120.74 20.8037L123.322 12.8574L116.563 7.9463H124.918L127.5 0Z" fill="#D9D9D9"/>
</svg>
